<svg width="185" height="65" viewBox="0 0 185 65" fill="none" xmlns="http://www.w3.org/2000/svg">
<path opacity="0.6" d="M19.938 42.74C20.6787 42.74 21.2727 42.9307 21.72 43.312C22.1673 43.6933 22.391 44.2103 22.391 44.863C22.391 45.5157 22.1637 46.0253 21.709 46.392C21.2617 46.7513 20.6677 46.931 19.927 46.931L19.85 46.986H18.068V50H17.188V42.74H19.938ZM19.927 46.161C20.4477 46.161 20.8327 46.0547 21.082 45.842C21.3387 45.622 21.467 45.2957 21.467 44.863C21.467 44.4303 21.3387 44.1077 21.082 43.895C20.8327 43.675 20.4477 43.565 19.927 43.565H18.068V46.161H19.927ZM20.433 46.337L22.831 50H21.786L19.696 46.821L20.433 46.337ZM26.4548 50.11C25.9341 50.11 25.4685 49.9963 25.0578 49.769C24.6545 49.5417 24.3391 49.2153 24.1118 48.79C23.8845 48.3573 23.7708 47.844 23.7708 47.25C23.7708 46.656 23.8845 46.1463 24.1118 45.721C24.3391 45.2883 24.6508 44.9583 25.0468 44.731C25.4428 44.5037 25.8938 44.39 26.3998 44.39C26.9131 44.39 27.3495 44.5 27.7088 44.72C28.0755 44.94 28.3541 45.2407 28.5448 45.622C28.7355 45.996 28.8308 46.4177 28.8308 46.887C28.8308 47.0117 28.8271 47.1253 28.8198 47.228C28.8125 47.3307 28.8015 47.4223 28.7868 47.503H24.3428V46.722H28.4018L27.9508 46.81C27.9508 46.282 27.8041 45.875 27.5108 45.589C27.2248 45.303 26.8471 45.16 26.3778 45.16C26.0185 45.16 25.7068 45.2443 25.4428 45.413C25.1861 45.5743 24.9845 45.8127 24.8378 46.128C24.6985 46.436 24.6288 46.81 24.6288 47.25C24.6288 47.6827 24.7021 48.0567 24.8488 48.372C24.9955 48.6873 25.2008 48.9293 25.4648 49.098C25.7361 49.2593 26.0588 49.34 26.4328 49.34C26.8361 49.34 27.1625 49.263 27.4118 49.109C27.6685 48.955 27.8738 48.746 28.0278 48.482L28.7208 48.889C28.5815 49.1383 28.4018 49.3547 28.1818 49.538C27.9691 49.7213 27.7161 49.8643 27.4228 49.967C27.1368 50.0623 26.8141 50.11 26.4548 50.11ZM33.7164 46.447C33.7164 46.0363 33.6064 45.721 33.3864 45.501C33.1664 45.2737 32.8548 45.16 32.4514 45.16C32.0701 45.16 31.7474 45.2443 31.4834 45.413C31.2194 45.5743 31.0251 45.8383 30.9004 46.205L30.1854 45.765C30.3321 45.3543 30.6034 45.0243 30.9994 44.775C31.3954 44.5183 31.8868 44.39 32.4734 44.39C32.8694 44.39 33.2288 44.4597 33.5514 44.599C33.8741 44.731 34.1271 44.9363 34.3104 45.215C34.5011 45.4863 34.5964 45.8383 34.5964 46.271V48.933C34.5964 49.197 34.7358 49.329 35.0144 49.329C35.1538 49.329 35.2894 49.3107 35.4214 49.274L35.3774 49.967C35.2308 50.0403 35.0401 50.077 34.8054 50.077C34.5928 50.077 34.4021 50.0367 34.2334 49.956C34.0648 49.8753 33.9328 49.7543 33.8374 49.593C33.7421 49.4243 33.6944 49.2153 33.6944 48.966V48.856L33.9144 48.889C33.8264 49.175 33.6761 49.4097 33.4634 49.593C33.2508 49.769 33.0124 49.901 32.7484 49.989C32.4844 50.0697 32.2241 50.11 31.9674 50.11C31.6448 50.11 31.3441 50.055 31.0654 49.945C30.7868 49.835 30.5631 49.67 30.3944 49.45C30.2331 49.2227 30.1524 48.944 30.1524 48.614C30.1524 48.2033 30.2881 47.866 30.5594 47.602C30.8381 47.3307 31.2231 47.1473 31.7144 47.052L33.8924 46.623V47.349L32.1214 47.712C31.7621 47.7853 31.4944 47.888 31.3184 48.02C31.1424 48.152 31.0544 48.3353 31.0544 48.57C31.0544 48.7973 31.1424 48.9843 31.3184 49.131C31.5018 49.2703 31.7584 49.34 32.0884 49.34C32.3011 49.34 32.5028 49.3143 32.6934 49.263C32.8914 49.2043 33.0674 49.12 33.2214 49.01C33.3754 48.8927 33.4964 48.7497 33.5844 48.581C33.6724 48.405 33.7164 48.1997 33.7164 47.965V46.447ZM37.5709 41.97V48.603C37.5709 48.8817 37.6222 49.076 37.7249 49.186C37.8276 49.2887 37.9926 49.34 38.2199 49.34C38.3666 49.34 38.4876 49.329 38.5829 49.307C38.6782 49.285 38.8066 49.2447 38.9679 49.186L38.8249 49.956C38.7076 50.0073 38.5792 50.044 38.4399 50.066C38.3006 50.0953 38.1576 50.11 38.0109 50.11C37.5636 50.11 37.2299 49.989 37.0099 49.747C36.7972 49.505 36.6909 49.1347 36.6909 48.636V41.97H37.5709ZM43.6245 50V42.74H48.7175V43.565H44.5045V45.908H47.7825V46.733H44.5045V49.175H48.8825V50H43.6245ZM52.4542 50.11C51.9188 50.11 51.4238 49.9963 50.9692 49.769C50.5218 49.5417 50.1772 49.219 49.9352 48.801L50.6832 48.262C50.8445 48.5993 51.0792 48.8633 51.3872 49.054C51.7025 49.2447 52.0802 49.34 52.5202 49.34C52.9088 49.34 53.2132 49.2667 53.4332 49.12C53.6532 48.966 53.7632 48.768 53.7632 48.526C53.7632 48.372 53.7118 48.2327 53.6092 48.108C53.5138 47.976 53.3268 47.8807 53.0482 47.822L51.7282 47.547C51.1928 47.437 50.8078 47.2537 50.5732 46.997C50.3458 46.7403 50.2322 46.4213 50.2322 46.04C50.2322 45.7393 50.3165 45.4643 50.4852 45.215C50.6612 44.9657 50.9068 44.7677 51.2222 44.621C51.5448 44.467 51.9225 44.39 52.3552 44.39C52.8978 44.39 53.3562 44.4963 53.7302 44.709C54.1042 44.9217 54.3828 45.2223 54.5662 45.611L53.8292 46.095C53.7045 45.7723 53.5028 45.5377 53.2242 45.391C52.9455 45.237 52.6558 45.16 52.3552 45.16C52.0912 45.16 51.8638 45.1967 51.6732 45.27C51.4898 45.3433 51.3468 45.446 51.2442 45.578C51.1488 45.7027 51.1012 45.8457 51.1012 46.007C51.1012 46.1683 51.1562 46.3187 51.2662 46.458C51.3762 46.59 51.5815 46.6853 51.8822 46.744L53.2572 47.03C53.7705 47.1327 54.1298 47.3013 54.3352 47.536C54.5405 47.7707 54.6432 48.0567 54.6432 48.394C54.6432 48.7387 54.5515 49.043 54.3682 49.307C54.1848 49.5637 53.9282 49.7617 53.5982 49.901C53.2682 50.0403 52.8868 50.11 52.4542 50.11ZM57.573 42.938V48.482C57.573 48.7533 57.65 48.955 57.804 49.087C57.958 49.219 58.156 49.285 58.398 49.285C58.6106 49.285 58.794 49.2483 58.948 49.175C59.102 49.1017 59.2413 49.0027 59.366 48.878L59.674 49.615C59.5053 49.769 59.3036 49.89 59.069 49.978C58.8416 50.066 58.5776 50.11 58.277 50.11C57.9983 50.11 57.738 50.0623 57.496 49.967C57.254 49.8643 57.0596 49.7067 56.913 49.494C56.7736 49.274 56.7003 48.988 56.693 48.636V43.18L57.573 42.938ZM59.575 44.5V45.259H55.593V44.5H59.575ZM64.0954 46.447C64.0954 46.0363 63.9854 45.721 63.7654 45.501C63.5454 45.2737 63.2337 45.16 62.8304 45.16C62.449 45.16 62.1264 45.2443 61.8624 45.413C61.5984 45.5743 61.404 45.8383 61.2794 46.205L60.5644 45.765C60.711 45.3543 60.9824 45.0243 61.3784 44.775C61.7744 44.5183 62.2657 44.39 62.8524 44.39C63.2484 44.39 63.6077 44.4597 63.9304 44.599C64.253 44.731 64.506 44.9363 64.6894 45.215C64.88 45.4863 64.9754 45.8383 64.9754 46.271V48.933C64.9754 49.197 65.1147 49.329 65.3934 49.329C65.5327 49.329 65.6684 49.3107 65.8004 49.274L65.7564 49.967C65.6097 50.0403 65.419 50.077 65.1844 50.077C64.9717 50.077 64.781 50.0367 64.6124 49.956C64.4437 49.8753 64.3117 49.7543 64.2164 49.593C64.121 49.4243 64.0734 49.2153 64.0734 48.966V48.856L64.2934 48.889C64.2054 49.175 64.055 49.4097 63.8424 49.593C63.6297 49.769 63.3914 49.901 63.1274 49.989C62.8634 50.0697 62.603 50.11 62.3464 50.11C62.0237 50.11 61.723 50.055 61.4444 49.945C61.1657 49.835 60.942 49.67 60.7734 49.45C60.612 49.2227 60.5314 48.944 60.5314 48.614C60.5314 48.2033 60.667 47.866 60.9384 47.602C61.217 47.3307 61.602 47.1473 62.0934 47.052L64.2714 46.623V47.349L62.5004 47.712C62.141 47.7853 61.8734 47.888 61.6974 48.02C61.5214 48.152 61.4334 48.3353 61.4334 48.57C61.4334 48.7973 61.5214 48.9843 61.6974 49.131C61.8807 49.2703 62.1374 49.34 62.4674 49.34C62.68 49.34 62.8817 49.3143 63.0724 49.263C63.2704 49.2043 63.4464 49.12 63.6004 49.01C63.7544 48.8927 63.8754 48.7497 63.9634 48.581C64.0514 48.405 64.0954 48.1997 64.0954 47.965V46.447ZM68.197 42.938V48.482C68.197 48.7533 68.274 48.955 68.428 49.087C68.582 49.219 68.78 49.285 69.022 49.285C69.2346 49.285 69.418 49.2483 69.572 49.175C69.726 49.1017 69.8653 49.0027 69.99 48.878L70.298 49.615C70.1293 49.769 69.9276 49.89 69.693 49.978C69.4656 50.066 69.2016 50.11 68.901 50.11C68.6223 50.11 68.362 50.0623 68.12 49.967C67.878 49.8643 67.6836 49.7067 67.537 49.494C67.3976 49.274 67.3243 48.988 67.317 48.636V43.18L68.197 42.938ZM70.199 44.5V45.259H66.217V44.5H70.199ZM73.8064 50.11C73.2857 50.11 72.82 49.9963 72.4094 49.769C72.006 49.5417 71.6907 49.2153 71.4634 48.79C71.236 48.3573 71.1224 47.844 71.1224 47.25C71.1224 46.656 71.236 46.1463 71.4634 45.721C71.6907 45.2883 72.0024 44.9583 72.3984 44.731C72.7944 44.5037 73.2454 44.39 73.7514 44.39C74.2647 44.39 74.701 44.5 75.0604 44.72C75.427 44.94 75.7057 45.2407 75.8964 45.622C76.087 45.996 76.1824 46.4177 76.1824 46.887C76.1824 47.0117 76.1787 47.1253 76.1714 47.228C76.164 47.3307 76.153 47.4223 76.1384 47.503H71.6944V46.722H75.7534L75.3024 46.81C75.3024 46.282 75.1557 45.875 74.8624 45.589C74.5764 45.303 74.1987 45.16 73.7294 45.16C73.37 45.16 73.0584 45.2443 72.7944 45.413C72.5377 45.5743 72.336 45.8127 72.1894 46.128C72.05 46.436 71.9804 46.81 71.9804 47.25C71.9804 47.6827 72.0537 48.0567 72.2004 48.372C72.347 48.6873 72.5524 48.9293 72.8164 49.098C73.0877 49.2593 73.4104 49.34 73.7844 49.34C74.1877 49.34 74.514 49.263 74.7634 49.109C75.02 48.955 75.2254 48.746 75.3794 48.482L76.0724 48.889C75.933 49.1383 75.7534 49.3547 75.5334 49.538C75.3207 49.7213 75.0677 49.8643 74.7744 49.967C74.4884 50.0623 74.1657 50.11 73.8064 50.11Z" fill="white"/>
<path d="M25.884 15.52C28.7773 15.52 30.9893 16.3227 32.52 17.928C34.0693 19.5333 34.844 21.8107 34.844 24.76C34.844 27.7093 34.0693 29.9867 32.52 31.592C30.9893 33.1973 28.7773 34 25.884 34H18.044V15.52H25.884ZM25.408 30.36C26.976 30.36 28.1147 29.8933 28.824 28.96C29.552 28.008 29.916 26.608 29.916 24.76C29.916 22.912 29.552 21.5213 28.824 20.588C28.1147 19.636 26.976 19.16 25.408 19.16H22.86V30.36H25.408ZM42.5377 34.28C41.5857 34.28 40.7457 34.1213 40.0177 33.804C39.3083 33.468 38.7483 32.936 38.3377 32.208C37.927 31.48 37.7217 30.528 37.7217 29.352V20H42.4817V28.232C42.4817 29.128 42.659 29.7533 43.0137 30.108C43.3683 30.4627 43.8723 30.64 44.5257 30.64C44.8617 30.64 45.179 30.584 45.4777 30.472C45.7763 30.3413 46.0377 30.1547 46.2617 29.912C46.4857 29.6507 46.6537 29.324 46.7657 28.932C46.8963 28.5213 46.9617 28.0453 46.9617 27.504V20H51.7217V34H47.4657L47.3257 31.368C46.8777 32.3573 46.2523 33.0947 45.4497 33.58C44.647 34.0467 43.6763 34.28 42.5377 34.28ZM64.1296 34.28C63.2149 34.28 62.4029 34.0747 61.6936 33.664C61.0029 33.2533 60.4336 32.6933 59.9856 31.984C59.5376 31.256 59.2483 30.4347 59.1176 29.52L59.5656 28.932L59.3136 34H55.1416V14.064H59.9016V24.396L59.4536 23.724C59.7149 22.5667 60.2469 21.6147 61.0496 20.868C61.8523 20.1027 62.9349 19.72 64.2976 19.72C65.3803 19.72 66.3416 20.0093 67.1816 20.588C68.0403 21.1667 68.7029 22.0067 69.1696 23.108C69.6549 24.1907 69.8976 25.5067 69.8976 27.056C69.8976 28.568 69.6549 29.8653 69.1696 30.948C68.6843 32.0307 68.0123 32.8613 67.1536 33.44C66.2949 34 65.2869 34.28 64.1296 34.28ZM62.4776 30.78C63.2989 30.78 63.9429 30.4813 64.4096 29.884C64.8763 29.268 65.1096 28.3067 65.1096 27C65.1096 25.6933 64.8763 24.7413 64.4096 24.144C63.9429 23.528 63.2989 23.22 62.4776 23.22C61.9363 23.22 61.4696 23.3787 61.0776 23.696C60.7043 23.9947 60.4149 24.424 60.2096 24.984C60.0043 25.544 59.9016 26.2253 59.9016 27.028C59.9016 27.8307 60.0043 28.512 60.2096 29.072C60.4149 29.632 60.7136 30.0613 61.1056 30.36C61.4976 30.64 61.9549 30.78 62.4776 30.78ZM80.3716 25.124C80.3716 24.4707 80.1849 23.9573 79.8116 23.584C79.4569 23.192 78.9716 22.996 78.3556 22.996C77.7396 22.996 77.2076 23.1547 76.7596 23.472C76.3302 23.7707 76.0316 24.312 75.8636 25.096L71.8316 24.144C72.0929 22.8 72.7836 21.7267 73.9036 20.924C75.0236 20.1213 76.6009 19.72 78.6356 19.72C79.9982 19.72 81.1556 19.9253 82.1076 20.336C83.0782 20.728 83.8156 21.3253 84.3196 22.128C84.8422 22.912 85.1036 23.8827 85.1036 25.04V30.164C85.1036 30.892 85.4302 31.256 86.0836 31.256C86.4196 31.256 86.6902 31.2187 86.8956 31.144L86.6156 33.86C86.0556 34.1213 85.3742 34.252 84.5716 34.252C83.8436 34.252 83.1996 34.14 82.6396 33.916C82.0796 33.6733 81.6409 33.3187 81.3236 32.852C81.0062 32.3667 80.8476 31.76 80.8476 31.032V30.864L81.3796 30.668C81.3796 31.4707 81.1369 32.1427 80.6516 32.684C80.1849 33.2253 79.5689 33.6267 78.8036 33.888C78.0569 34.1493 77.2729 34.28 76.4516 34.28C75.4996 34.28 74.6689 34.1307 73.9596 33.832C73.2502 33.5333 72.6996 33.104 72.3076 32.544C71.9342 31.9653 71.7476 31.256 71.7476 30.416C71.7476 29.408 72.0462 28.5773 72.6436 27.924C73.2596 27.252 74.2209 26.7853 75.5276 26.524L80.8196 25.432L80.7916 27.952L78.1036 28.512C77.5436 28.624 77.1236 28.792 76.8436 29.016C76.5822 29.2213 76.4516 29.5387 76.4516 29.968C76.4516 30.3787 76.6009 30.6867 76.8996 30.892C77.1982 31.0973 77.5529 31.2 77.9636 31.2C78.2809 31.2 78.5796 31.1533 78.8596 31.06C79.1582 30.9667 79.4196 30.8267 79.6436 30.64C79.8676 30.4347 80.0449 30.1827 80.1756 29.884C80.3062 29.5853 80.3716 29.2307 80.3716 28.82V25.124ZM91.1544 18.376C90.1837 18.376 89.4744 18.1987 89.0264 17.844C88.5971 17.4707 88.3824 16.892 88.3824 16.108C88.3824 15.3053 88.5971 14.7267 89.0264 14.372C89.4744 13.9987 90.1837 13.812 91.1544 13.812C92.1064 13.812 92.8064 13.9987 93.2544 14.372C93.7024 14.7267 93.9264 15.3053 93.9264 16.108C93.9264 16.892 93.7024 17.4707 93.2544 17.844C92.8064 18.1987 92.1064 18.376 91.1544 18.376ZM93.5344 20V34H88.7744V20H93.5344ZM106.079 15.52C108.282 15.52 109.99 16.0427 111.203 17.088C112.435 18.1147 113.051 19.4867 113.051 21.204C113.051 23.0893 112.444 24.5267 111.231 25.516C110.018 26.5053 108.31 27 106.107 27L105.659 27.252H101.991V34H97.2588V15.52H106.079ZM105.407 23.836C106.34 23.836 107.04 23.6493 107.507 23.276C107.974 22.9027 108.207 22.3053 108.207 21.484C108.207 20.6813 107.974 20.0933 107.507 19.72C107.04 19.3467 106.34 19.16 105.407 19.16H101.991V23.836H105.407ZM108.235 24.844L114.143 34H108.823L104.091 25.908L108.235 24.844ZM122.868 34.28C121.319 34.28 119.975 33.9907 118.836 33.412C117.716 32.8333 116.848 32.0027 116.232 30.92C115.616 29.8373 115.308 28.5307 115.308 27C115.308 25.4693 115.616 24.1627 116.232 23.08C116.848 21.9973 117.707 21.1667 118.808 20.588C119.928 20.0093 121.207 19.72 122.644 19.72C124.119 19.72 125.369 20.0093 126.396 20.588C127.441 21.148 128.235 21.932 128.776 22.94C129.317 23.9293 129.588 25.068 129.588 26.356C129.588 26.692 129.579 27.028 129.56 27.364C129.541 27.7 129.513 27.98 129.476 28.204H118.388V25.656H127.376L125.108 26.524C125.108 25.404 124.903 24.5453 124.492 23.948C124.1 23.3507 123.484 23.052 122.644 23.052C122.047 23.052 121.533 23.192 121.104 23.472C120.693 23.752 120.376 24.1907 120.152 24.788C119.947 25.3853 119.844 26.1507 119.844 27.084C119.844 27.9987 119.965 28.7453 120.208 29.324C120.451 29.884 120.796 30.2947 121.244 30.556C121.692 30.7987 122.233 30.92 122.868 30.92C123.577 30.92 124.137 30.78 124.548 30.5C124.977 30.22 125.295 29.828 125.5 29.324L129.308 30.584C129.047 31.3867 128.589 32.068 127.936 32.628C127.301 33.1693 126.536 33.58 125.64 33.86C124.763 34.14 123.839 34.28 122.868 34.28ZM140.063 25.124C140.063 24.4707 139.876 23.9573 139.503 23.584C139.148 23.192 138.663 22.996 138.047 22.996C137.431 22.996 136.899 23.1547 136.451 23.472C136.022 23.7707 135.723 24.312 135.555 25.096L131.523 24.144C131.784 22.8 132.475 21.7267 133.595 20.924C134.715 20.1213 136.292 19.72 138.327 19.72C139.69 19.72 140.847 19.9253 141.799 20.336C142.77 20.728 143.507 21.3253 144.011 22.128C144.534 22.912 144.795 23.8827 144.795 25.04V30.164C144.795 30.892 145.122 31.256 145.775 31.256C146.111 31.256 146.382 31.2187 146.587 31.144L146.307 33.86C145.747 34.1213 145.066 34.252 144.263 34.252C143.535 34.252 142.891 34.14 142.331 33.916C141.771 33.6733 141.332 33.3187 141.015 32.852C140.698 32.3667 140.539 31.76 140.539 31.032V30.864L141.071 30.668C141.071 31.4707 140.828 32.1427 140.343 32.684C139.876 33.2253 139.26 33.6267 138.495 33.888C137.748 34.1493 136.964 34.28 136.143 34.28C135.191 34.28 134.36 34.1307 133.651 33.832C132.942 33.5333 132.391 33.104 131.999 32.544C131.626 31.9653 131.439 31.256 131.439 30.416C131.439 29.408 131.738 28.5773 132.335 27.924C132.951 27.252 133.912 26.7853 135.219 26.524L140.511 25.432L140.483 27.952L137.795 28.512C137.235 28.624 136.815 28.792 136.535 29.016C136.274 29.2213 136.143 29.5387 136.143 29.968C136.143 30.3787 136.292 30.6867 136.591 30.892C136.89 31.0973 137.244 31.2 137.655 31.2C137.972 31.2 138.271 31.1533 138.551 31.06C138.85 30.9667 139.111 30.8267 139.335 30.64C139.559 30.4347 139.736 30.1827 139.867 29.884C139.998 29.5853 140.063 29.2307 140.063 28.82V25.124ZM153.17 14.064V29.24C153.17 29.856 153.272 30.2947 153.478 30.556C153.683 30.8173 154.028 30.948 154.514 30.948C154.794 30.948 155.027 30.9293 155.214 30.892C155.4 30.8547 155.624 30.7987 155.886 30.724L155.578 33.58C155.242 33.7853 154.803 33.9533 154.262 34.084C153.72 34.2147 153.188 34.28 152.666 34.28C151.172 34.28 150.09 33.9347 149.418 33.244C148.746 32.5533 148.41 31.424 148.41 29.856V14.064H153.17ZM163.013 15.548V29.016C163.013 29.688 163.172 30.1733 163.489 30.472C163.825 30.752 164.282 30.892 164.861 30.892C165.309 30.892 165.692 30.8453 166.009 30.752C166.345 30.64 166.644 30.4813 166.905 30.276L167.409 33.216C166.942 33.552 166.354 33.8133 165.645 34C164.936 34.1867 164.208 34.28 163.461 34.28C162.397 34.28 161.473 34.1307 160.689 33.832C159.924 33.5333 159.326 33.0573 158.897 32.404C158.486 31.7507 158.272 30.8827 158.253 29.8V16.864L163.013 15.548ZM167.185 20V23.388H155.845V20H167.185ZM183.468 20L178.372 34C177.849 35.4747 177.28 36.6507 176.664 37.528C176.048 38.4053 175.32 39.04 174.48 39.432C173.64 39.824 172.632 40.02 171.456 40.02C170.672 40.02 169.953 39.936 169.3 39.768C168.646 39.6 168.077 39.3667 167.592 39.068L168.544 35.848C168.88 36.0907 169.234 36.2587 169.608 36.352C169.981 36.464 170.457 36.52 171.036 36.52C171.577 36.52 172.016 36.4267 172.352 36.24C172.706 36.0533 172.986 35.6987 173.192 35.176L173.556 34.308L171.932 30.5L167.732 20H172.968L175.124 27.98L175.796 30.948L176.58 27.868L178.736 20H183.468Z" fill="white"/>
<path d="M41 1L1 1V32.5V64H41" stroke="#FCD54C" stroke-width="2"/>
</svg>
